<svg width="18" height="20" viewBox="0 0 18 20" fill="none" xmlns="http://www.w3.org/2000/svg">
<path d="M1.19922 19.2656H3.14062V12.8242H1.19922V19.2656ZM3.41797 19.8242H0.917969C0.761719 19.8242 0.636719 19.6992 0.636719 19.543V12.543C0.636719 12.3867 0.761719 12.2617 0.917969 12.2617H3.41797C3.57812 12.2617 3.70312 12.3867 3.70312 12.543V19.543C3.70312 19.6992 3.57812 19.8242 3.41797 19.8242Z" fill="#FAC600"/>
<path d="M7.50347 15.8125C7.38238 15.8125 7.2691 15.7383 7.23394 15.6172C7.18707 15.4687 7.2691 15.3125 7.41753 15.2656L9.2105 14.7109C9.24956 14.6992 9.29253 14.6914 9.3355 14.6992L12.6871 15.1719C12.8902 15.1992 13.0699 15.0742 13.1128 14.8789L13.1402 14.7539C13.1871 14.5469 13.0621 14.3437 12.8589 14.2969L9.32769 13.4609C9.17535 13.4258 9.02691 13.4219 8.87457 13.4492L3.47222 14.4492C3.31988 14.4766 3.17144 14.3789 3.1441 14.2266C3.11675 14.0742 3.21831 13.9258 3.37066 13.8984L8.773 12.8984C9.00347 12.8555 9.23003 12.8633 9.4566 12.9141L12.9878 13.75C13.4878 13.8672 13.8043 14.3711 13.6871 14.8789L13.6597 15.0039C13.5543 15.4766 13.0894 15.7969 12.6089 15.7266L9.31597 15.2656L7.5855 15.8008C7.55816 15.8125 7.52691 15.8125 7.50347 15.8125Z" fill="#FAC600"/>
<path d="M7.26984 18.4531C5.97687 18.4531 4.6839 18.375 3.38702 18.2227C3.23468 18.2031 3.12531 18.0664 3.14484 17.9102C3.16046 17.7578 3.30109 17.6484 3.45343 17.6641C7.60187 18.1562 11.7503 17.8477 15.7816 16.75L16.4612 16.5625C16.6956 16.5 16.7347 16.3008 16.7425 16.2383C16.7503 16.1797 16.7542 15.9727 16.5433 15.8594C16.4886 15.8281 16.4261 15.8125 16.3636 15.8125L12.6448 15.7305C12.4886 15.7266 12.3675 15.5977 12.3675 15.4414C12.3714 15.2852 12.4964 15.1641 12.6566 15.168L16.3675 15.2539H16.3714C16.5198 15.2539 16.6722 15.293 16.8089 15.3672C17.1526 15.5508 17.3441 15.918 17.2972 16.3047C17.2542 16.6875 16.9847 17.0039 16.6097 17.1055L15.93 17.2891C13.0862 18.0625 10.1878 18.4531 7.26984 18.4531Z" fill="#FAC600"/>
<path d="M9.96452 11.6172C9.48796 11.6172 8.94499 11.4453 8.5153 10.8867C8.42155 10.7617 8.44499 10.5859 8.56999 10.4922C8.69108 10.3984 8.86686 10.4219 8.96452 10.543C9.62077 11.4023 10.57 10.9297 10.6091 10.9062C10.6169 10.9023 10.6247 10.8984 10.6325 10.8984C10.6676 10.8828 10.9958 10.7266 10.9567 10.2773C10.9098 9.78906 10.445 9.64844 10.4411 9.64844C10.4372 9.64844 9.90593 9.48828 9.37858 9.33203C8.78874 9.15625 8.48014 8.76562 8.48405 8.19922C8.48796 7.92578 8.60905 7.03906 9.99577 7.03906H10.0309C10.9762 7.04687 11.4137 7.71484 11.5153 8.06641C11.5583 8.21484 11.4723 8.37109 11.3239 8.41406C11.1755 8.45703 11.0192 8.37109 10.9762 8.22266C10.9567 8.16016 10.7653 7.60547 10.027 7.59766C9.38639 7.59375 9.05046 7.79688 9.04655 8.20312C9.04264 8.42188 9.10124 8.66406 9.53874 8.79688C10.0661 8.94922 10.6012 9.10938 10.6012 9.10938C10.6325 9.11719 11.4333 9.35937 11.5153 10.2266C11.5778 10.9141 11.1208 11.2969 10.8591 11.4102C10.6481 11.5195 10.3239 11.6172 9.96452 11.6172Z" fill="#FAC600"/>
<path d="M10.0273 7.59766C9.875 7.59766 9.74609 7.47266 9.74609 7.32031V6.48047C9.74609 6.32422 9.875 6.19922 10.0273 6.19922C10.1836 6.19922 10.3086 6.32422 10.3086 6.48047V7.32031C10.3086 7.47266 10.1836 7.59766 10.0273 7.59766Z" fill="#FAC600"/>
<path d="M10.0273 12.5078C9.875 12.5078 9.74609 12.3828 9.74609 12.2305V11.3906C9.74609 11.2344 9.875 11.1094 10.0273 11.1094C10.1836 11.1094 10.3086 11.2344 10.3086 11.3906V12.2305C10.3086 12.3828 10.1836 12.5078 10.0273 12.5078Z" fill="#FAC600"/>
<path d="M13.6484 15.7305C13.5273 15.7305 13.4141 15.6484 13.3789 15.5273C13.3359 15.3789 13.418 15.2227 13.5664 15.1797C14.7695 14.8242 15.3047 14.0391 15.3047 12.6367C15.3047 10.2812 13.75 6.70312 11.6562 5.37109H8.33203C6.23828 6.70312 4.67969 10.2812 4.67969 12.6367C4.67969 13.0781 4.73438 13.4688 4.84766 13.793C4.89453 13.9375 4.81641 14.0977 4.66797 14.1484C4.52344 14.1992 4.36328 14.1172 4.31641 13.9727C4.1875 13.5898 4.12109 13.1406 4.12109 12.6367C4.12109 10.1055 5.75781 6.28516 8.10156 4.85156C8.14844 4.82422 8.19531 4.80859 8.25 4.80859H11.7383C11.7891 4.80859 11.8398 4.82422 11.8828 4.85156C14.2305 6.28516 15.8672 10.1055 15.8672 12.6367C15.8672 14.2852 15.168 15.293 13.7266 15.7188C13.6992 15.7266 13.6719 15.7305 13.6484 15.7305Z" fill="#FAC600"/>
<path d="M7.99609 3.92188C7.86328 3.92188 7.75781 4.02344 7.75781 4.15625V4.57031C7.75781 4.70312 7.86328 4.80859 7.99609 4.80859H11.9883C12.1211 4.80859 12.2266 4.70312 12.2266 4.57031V4.15625C12.2266 4.02344 12.1211 3.92188 11.9883 3.92188H7.99609ZM11.9883 5.37109H7.99609C7.55469 5.37109 7.19922 5.01172 7.19922 4.57031V4.15625C7.19922 3.71484 7.55469 3.35938 7.99609 3.35938H11.9883C12.4297 3.35938 12.7891 3.71484 12.7891 4.15625V4.57031C12.7891 5.01172 12.4297 5.37109 11.9883 5.37109Z" fill="#FAC600"/>
<path d="M11.6094 3.92187C11.5664 3.92187 11.5196 3.90624 11.4766 3.88671C11.3399 3.81249 11.2891 3.64062 11.3633 3.5039C11.3828 3.47265 11.8086 2.69921 12.6875 1.41015C12.7891 1.26171 12.793 1.1875 12.7891 1.17578C12.6602 0.906245 10.7735 1.05859 9.76956 1.49609C9.11722 1.78124 8.63284 1.5039 8.24612 1.28515C7.96878 1.1289 7.7305 0.988275 7.44534 1.02343C7.45706 1.34765 8.15237 2.44531 9.00003 3.46093C9.10159 3.57812 9.08597 3.7539 8.96487 3.85546C8.84769 3.95312 8.668 3.93749 8.57034 3.82031C7.99222 3.1289 6.67581 1.45703 6.92191 0.792964C6.98441 0.621089 7.12894 0.507807 7.32034 0.476557C7.81644 0.394525 8.19144 0.60937 8.52347 0.79687C8.92191 1.02343 9.17191 1.14453 9.543 0.98437C10.2422 0.679683 12.6563 0.132808 13.2188 0.812495C13.3594 0.980464 13.461 1.27734 13.1524 1.72656C12.2852 2.99218 11.8594 3.76562 11.8555 3.77343C11.8047 3.86718 11.711 3.92187 11.6094 3.92187Z" fill="#FAC600"/>
</svg>
